<mxfile host="app.diagrams.net" modified="2020-11-27T10:12:22.713Z" agent="5.0 (Macintosh; Intel Mac OS X 10_11_6) AppleWebKit/537.36 (KHTML, like Gecko) Chrome/86.0.4240.198 Safari/537.36" etag="b3pxORhpyLNgl6utaeQi" version="13.10.3" type="github">
  <diagram id="Pk1b3dgURT7b5KNRzjb6" name="Page-1">
    <mxGraphModel dx="1123" dy="734" grid="1" gridSize="10" guides="1" tooltips="1" connect="1" arrows="1" fold="1" page="1" pageScale="1" pageWidth="827" pageHeight="1169" math="0" shadow="0">
      <root>
        <mxCell id="0" />
        <mxCell id="1" parent="0" />
        <mxCell id="W44GUW1nfyjWdWvCGlpn-1" value="BubbelSort" style="ellipse;whiteSpace=wrap;html=1;fillColor=#d5e8d4;strokeColor=#82b366;" parent="1" vertex="1">
          <mxGeometry x="340" y="40" width="120" height="80" as="geometry" />
        </mxCell>
        <mxCell id="W44GUW1nfyjWdWvCGlpn-3" value="&lt;font style=&quot;font-size: 20px&quot;&gt;&lt;b&gt;6&amp;nbsp; &amp;nbsp; 5&lt;/b&gt;&amp;nbsp; &amp;nbsp;3&amp;nbsp; &amp;nbsp;1&amp;nbsp; &amp;nbsp;8&amp;nbsp; &amp;nbsp;7&amp;nbsp; &amp;nbsp;2&amp;nbsp; &amp;nbsp;4&lt;/font&gt;" style="rounded=0;whiteSpace=wrap;html=1;gradientColor=#ffffff;" parent="1" vertex="1">
          <mxGeometry x="240" y="150" width="280" height="70" as="geometry" />
        </mxCell>
        <mxCell id="W44GUW1nfyjWdWvCGlpn-4" value="&lt;font style=&quot;font-size: 20px&quot;&gt;5&amp;nbsp; &amp;nbsp; &lt;b&gt;6&amp;nbsp; &amp;nbsp; 3&amp;nbsp;&lt;/b&gt; &amp;nbsp;1&amp;nbsp; &amp;nbsp;8&amp;nbsp; &amp;nbsp;7&amp;nbsp; &amp;nbsp;2&amp;nbsp; &amp;nbsp;4&amp;nbsp;&amp;nbsp;&lt;/font&gt;" style="rounded=0;whiteSpace=wrap;html=1;" parent="1" vertex="1">
          <mxGeometry x="240" y="260" width="280" height="70" as="geometry" />
        </mxCell>
        <mxCell id="W44GUW1nfyjWdWvCGlpn-5" value="&lt;span style=&quot;font-size: 20px&quot;&gt;5&amp;nbsp; &amp;nbsp; 3&amp;nbsp; &amp;nbsp;&lt;b&gt;6&amp;nbsp; &amp;nbsp;1&lt;/b&gt;&amp;nbsp; &amp;nbsp;8&amp;nbsp; &amp;nbsp;7&amp;nbsp; &amp;nbsp;2&amp;nbsp; &amp;nbsp;4&amp;nbsp;&amp;nbsp;&lt;/span&gt;" style="rounded=0;whiteSpace=wrap;html=1;" parent="1" vertex="1">
          <mxGeometry x="240" y="380" width="280" height="70" as="geometry" />
        </mxCell>
        <mxCell id="W44GUW1nfyjWdWvCGlpn-6" value="&lt;span style=&quot;color: rgb(0 , 0 , 0) ; font-family: &amp;#34;helvetica&amp;#34; ; font-size: 20px ; font-style: normal ; font-weight: 400 ; letter-spacing: normal ; text-align: center ; text-indent: 0px ; text-transform: none ; word-spacing: 0px ; background-color: rgb(248 , 249 , 250) ; display: inline ; float: none&quot;&gt;5&amp;nbsp; &amp;nbsp; 3&amp;nbsp; &amp;nbsp; 1&amp;nbsp; &amp;nbsp; &lt;/span&gt;&lt;span style=&quot;color: rgb(0 , 0 , 0) ; font-family: &amp;#34;helvetica&amp;#34; ; font-size: 20px ; font-style: normal ; letter-spacing: normal ; text-align: center ; text-indent: 0px ; text-transform: none ; word-spacing: 0px ; background-color: rgb(248 , 249 , 250) ; display: inline ; float: none&quot;&gt;&lt;b&gt;6&amp;nbsp; &amp;nbsp; 8&lt;/b&gt;&lt;/span&gt;&lt;span style=&quot;color: rgb(0 , 0 , 0) ; font-family: &amp;#34;helvetica&amp;#34; ; font-size: 20px ; font-style: normal ; font-weight: 400 ; letter-spacing: normal ; text-align: center ; text-indent: 0px ; text-transform: none ; word-spacing: 0px ; background-color: rgb(248 , 249 , 250) ; display: inline ; float: none&quot;&gt;&amp;nbsp; &amp;nbsp;7&amp;nbsp; &amp;nbsp;2&amp;nbsp; &amp;nbsp;4&amp;nbsp;&amp;nbsp;&lt;/span&gt;" style="rounded=0;whiteSpace=wrap;html=1;" parent="1" vertex="1">
          <mxGeometry x="240" y="500" width="280" height="70" as="geometry" />
        </mxCell>
        <mxCell id="W44GUW1nfyjWdWvCGlpn-7" value="&lt;span style=&quot;font-family: &amp;#34;helvetica&amp;#34; ; font-size: 20px&quot;&gt;5&amp;nbsp; &amp;nbsp; 3&amp;nbsp; &amp;nbsp; 1&amp;nbsp; &amp;nbsp; 6&amp;nbsp; &amp;nbsp; &lt;b&gt;8&amp;nbsp; &amp;nbsp;7&amp;nbsp;&lt;/b&gt; &amp;nbsp;2&amp;nbsp; &amp;nbsp;4&amp;nbsp;&amp;nbsp;&lt;/span&gt;" style="rounded=0;whiteSpace=wrap;html=1;" parent="1" vertex="1">
          <mxGeometry x="240" y="620" width="280" height="70" as="geometry" />
        </mxCell>
        <mxCell id="W44GUW1nfyjWdWvCGlpn-8" value="&lt;span style=&quot;font-family: &amp;#34;helvetica&amp;#34; ; font-size: 20px&quot;&gt;5&amp;nbsp; &amp;nbsp; 3&amp;nbsp; &amp;nbsp; 1&amp;nbsp; &amp;nbsp; 6&amp;nbsp; &amp;nbsp; 7&amp;nbsp; &amp;nbsp; 2&amp;nbsp; &amp;nbsp;&lt;b&gt;8&amp;nbsp; &amp;nbsp;4&lt;/b&gt;&amp;nbsp;&amp;nbsp;&lt;/span&gt;" style="rounded=0;whiteSpace=wrap;html=1;" parent="1" vertex="1">
          <mxGeometry x="240" y="860" width="280" height="70" as="geometry" />
        </mxCell>
        <mxCell id="W44GUW1nfyjWdWvCGlpn-11" value="&lt;span style=&quot;font-family: &amp;#34;helvetica&amp;#34; ; font-size: 20px&quot;&gt;&lt;b&gt;5&amp;nbsp; &amp;nbsp; 3&amp;nbsp;&lt;/b&gt; &amp;nbsp; 1&amp;nbsp; &amp;nbsp; 6&amp;nbsp; &amp;nbsp; 7&amp;nbsp; &amp;nbsp; 2&amp;nbsp; &amp;nbsp; 4&amp;nbsp; &amp;nbsp;8&amp;nbsp;&amp;nbsp;&lt;/span&gt;" style="whiteSpace=wrap;html=1;gradientColor=#ffffff;" parent="1" vertex="1">
          <mxGeometry x="240" y="980" width="280" height="70" as="geometry" />
        </mxCell>
        <mxCell id="W44GUW1nfyjWdWvCGlpn-12" value="&lt;span style=&quot;font-family: &amp;#34;helvetica&amp;#34; ; font-size: 20px&quot;&gt;3&amp;nbsp; &amp;nbsp; &lt;b&gt;5&amp;nbsp; &amp;nbsp; 1&lt;/b&gt;&amp;nbsp; &amp;nbsp; 6&amp;nbsp; &amp;nbsp; 7&amp;nbsp; &amp;nbsp; 2&amp;nbsp; &amp;nbsp; 4&amp;nbsp; &amp;nbsp;8&amp;nbsp;&amp;nbsp;&lt;/span&gt;" style="whiteSpace=wrap;html=1;gradientColor=#ffffff;" parent="1" vertex="1">
          <mxGeometry x="240" y="1080" width="280" height="70" as="geometry" />
        </mxCell>
        <mxCell id="W44GUW1nfyjWdWvCGlpn-14" value="&lt;span style=&quot;font-family: &amp;#34;helvetica&amp;#34; ; font-size: 20px&quot;&gt;3&amp;nbsp; &amp;nbsp; 1&amp;nbsp; &amp;nbsp; &lt;b&gt;5&amp;nbsp; &amp;nbsp; 6&lt;/b&gt;&amp;nbsp; &amp;nbsp; 7&amp;nbsp; &amp;nbsp; 2&amp;nbsp; &amp;nbsp; 4&amp;nbsp; &amp;nbsp;8&amp;nbsp;&amp;nbsp;&lt;/span&gt;" style="whiteSpace=wrap;html=1;gradientColor=#ffffff;" parent="1" vertex="1">
          <mxGeometry x="240" y="1200" width="280" height="70" as="geometry" />
        </mxCell>
        <mxCell id="W44GUW1nfyjWdWvCGlpn-15" value="&lt;span style=&quot;font-family: &amp;#34;helvetica&amp;#34; ; font-size: 20px&quot;&gt;3&amp;nbsp; &amp;nbsp; 1&amp;nbsp; &amp;nbsp; 5&amp;nbsp; &amp;nbsp; &lt;b&gt;6&amp;nbsp; &amp;nbsp; 7&lt;/b&gt;&amp;nbsp; &amp;nbsp; 2&amp;nbsp; &amp;nbsp; 4&amp;nbsp; &amp;nbsp;8&amp;nbsp;&amp;nbsp;&lt;/span&gt;" style="whiteSpace=wrap;html=1;gradientColor=#ffffff;" parent="1" vertex="1">
          <mxGeometry x="240" y="1320" width="280" height="70" as="geometry" />
        </mxCell>
        <mxCell id="W44GUW1nfyjWdWvCGlpn-16" value="&lt;span style=&quot;font-family: &amp;#34;helvetica&amp;#34; ; font-size: 20px&quot;&gt;3&amp;nbsp; &amp;nbsp; 1&amp;nbsp; &amp;nbsp; 5&amp;nbsp; &amp;nbsp; 6&amp;nbsp; &amp;nbsp; &lt;b&gt;2&amp;nbsp; &amp;nbsp;7&lt;/b&gt;&amp;nbsp; &amp;nbsp; 4&amp;nbsp; &amp;nbsp;8&amp;nbsp;&amp;nbsp;&lt;/span&gt;" style="whiteSpace=wrap;html=1;gradientColor=#ffffff;" parent="1" vertex="1">
          <mxGeometry x="240" y="1440" width="280" height="70" as="geometry" />
        </mxCell>
        <mxCell id="W44GUW1nfyjWdWvCGlpn-21" value="&lt;span style=&quot;font-family: &amp;#34;helvetica&amp;#34; ; font-size: 20px&quot;&gt;5&amp;nbsp; &amp;nbsp; 3&amp;nbsp; &amp;nbsp; 1&amp;nbsp; &amp;nbsp; 6&amp;nbsp; &amp;nbsp; 7&lt;b&gt;&amp;nbsp; &amp;nbsp;8&amp;nbsp;&lt;/b&gt; &amp;nbsp;&lt;b&gt;2&lt;/b&gt;&amp;nbsp; &amp;nbsp;4&amp;nbsp;&amp;nbsp;&lt;/span&gt;" style="rounded=0;whiteSpace=wrap;html=1;" parent="1" vertex="1">
          <mxGeometry x="240" y="740" width="280" height="70" as="geometry" />
        </mxCell>
        <mxCell id="W44GUW1nfyjWdWvCGlpn-22" value="&lt;span style=&quot;font-family: &amp;#34;helvetica&amp;#34; ; font-size: 20px&quot;&gt;3&amp;nbsp; &amp;nbsp; 1&amp;nbsp; &amp;nbsp; 5&amp;nbsp; &amp;nbsp; 6&amp;nbsp; &amp;nbsp; 2&lt;b&gt;&amp;nbsp; &amp;nbsp;7&lt;/b&gt;&amp;nbsp; &amp;nbsp; &lt;b&gt;4&lt;/b&gt;&amp;nbsp; &amp;nbsp;8&amp;nbsp;&amp;nbsp;&lt;/span&gt;" style="whiteSpace=wrap;html=1;gradientColor=#ffffff;" parent="1" vertex="1">
          <mxGeometry x="240" y="1550" width="280" height="70" as="geometry" />
        </mxCell>
        <mxCell id="W44GUW1nfyjWdWvCGlpn-23" value="&lt;span style=&quot;font-family: &amp;#34;helvetica&amp;#34; ; font-size: 20px&quot;&gt;3&amp;nbsp; &amp;nbsp; 1&amp;nbsp; &amp;nbsp; 5&amp;nbsp; &amp;nbsp; 6&amp;nbsp; &amp;nbsp; 2&lt;b&gt;&amp;nbsp; &amp;nbsp;&lt;/b&gt;4&amp;nbsp; &amp;nbsp;&lt;b&gt;7&lt;/b&gt;&amp;nbsp; &amp;nbsp;&lt;b&gt;8&lt;/b&gt;&amp;nbsp;&amp;nbsp;&lt;/span&gt;" style="whiteSpace=wrap;html=1;gradientColor=#ffffff;" parent="1" vertex="1">
          <mxGeometry x="240" y="1660" width="280" height="70" as="geometry" />
        </mxCell>
        <mxCell id="W44GUW1nfyjWdWvCGlpn-25" value="&lt;span style=&quot;font-family: &amp;#34;helvetica&amp;#34; ; font-size: 20px&quot;&gt;&lt;b&gt;3&amp;nbsp; &amp;nbsp; 1&lt;/b&gt;&amp;nbsp; &amp;nbsp; 5&amp;nbsp; &amp;nbsp; 6&amp;nbsp; &amp;nbsp; 2&lt;/span&gt;&lt;b style=&quot;font-family: &amp;#34;helvetica&amp;#34; ; font-size: 20px&quot;&gt;&amp;nbsp; &amp;nbsp;&lt;/b&gt;&lt;span style=&quot;font-family: &amp;#34;helvetica&amp;#34; ; font-size: 20px&quot;&gt;4&amp;nbsp; &amp;nbsp;7&lt;/span&gt;&lt;span style=&quot;font-family: &amp;#34;helvetica&amp;#34; ; font-size: 20px&quot;&gt;&amp;nbsp; &amp;nbsp;8&lt;/span&gt;&lt;span style=&quot;font-family: &amp;#34;helvetica&amp;#34; ; font-size: 20px&quot;&gt;&amp;nbsp;&lt;/span&gt;" style="rounded=0;whiteSpace=wrap;html=1;" parent="1" vertex="1">
          <mxGeometry x="240" y="1770" width="280" height="70" as="geometry" />
        </mxCell>
        <mxCell id="W44GUW1nfyjWdWvCGlpn-26" value="&lt;span style=&quot;font-family: &amp;#34;helvetica&amp;#34; ; font-size: 20px&quot;&gt;&lt;b&gt;1&amp;nbsp; &amp;nbsp; 3&lt;/b&gt;&amp;nbsp; &amp;nbsp; 5&amp;nbsp; &amp;nbsp; 6&amp;nbsp; &amp;nbsp; 2&lt;/span&gt;&lt;b style=&quot;font-family: &amp;#34;helvetica&amp;#34; ; font-size: 20px&quot;&gt;&amp;nbsp; &amp;nbsp;&lt;/b&gt;&lt;span style=&quot;font-family: &amp;#34;helvetica&amp;#34; ; font-size: 20px&quot;&gt;4&amp;nbsp; &amp;nbsp;7&lt;/span&gt;&lt;span style=&quot;font-family: &amp;#34;helvetica&amp;#34; ; font-size: 20px&quot;&gt;&amp;nbsp; &amp;nbsp;8&lt;/span&gt;&lt;span style=&quot;font-family: &amp;#34;helvetica&amp;#34; ; font-size: 20px&quot;&gt;&amp;nbsp;&lt;/span&gt;" style="rounded=0;whiteSpace=wrap;html=1;" parent="1" vertex="1">
          <mxGeometry x="240" y="1890" width="280" height="70" as="geometry" />
        </mxCell>
        <mxCell id="W44GUW1nfyjWdWvCGlpn-27" value="&lt;span style=&quot;font-family: &amp;#34;helvetica&amp;#34; ; font-size: 20px&quot;&gt;1&lt;b&gt;&amp;nbsp; &amp;nbsp; 3&lt;/b&gt;&amp;nbsp; &amp;nbsp; &lt;b&gt;5&lt;/b&gt;&amp;nbsp; &amp;nbsp; 6&amp;nbsp; &amp;nbsp; 2&lt;/span&gt;&lt;b style=&quot;font-family: &amp;#34;helvetica&amp;#34; ; font-size: 20px&quot;&gt;&amp;nbsp; &amp;nbsp;&lt;/b&gt;&lt;span style=&quot;font-family: &amp;#34;helvetica&amp;#34; ; font-size: 20px&quot;&gt;4&amp;nbsp; &amp;nbsp;7&lt;/span&gt;&lt;span style=&quot;font-family: &amp;#34;helvetica&amp;#34; ; font-size: 20px&quot;&gt;&amp;nbsp; &amp;nbsp;8&lt;/span&gt;&lt;span style=&quot;font-family: &amp;#34;helvetica&amp;#34; ; font-size: 20px&quot;&gt;&amp;nbsp;&lt;/span&gt;" style="rounded=0;whiteSpace=wrap;html=1;" parent="1" vertex="1">
          <mxGeometry x="240" y="2000" width="280" height="70" as="geometry" />
        </mxCell>
        <mxCell id="W44GUW1nfyjWdWvCGlpn-28" value="&lt;span style=&quot;font-family: &amp;#34;helvetica&amp;#34; ; font-size: 20px&quot;&gt;1&lt;b&gt;&amp;nbsp; &amp;nbsp; &lt;/b&gt;3&amp;nbsp; &amp;nbsp;&lt;b&gt;5&lt;/b&gt;&amp;nbsp; &amp;nbsp; &lt;b&gt;6&lt;/b&gt;&amp;nbsp; &amp;nbsp; 2&lt;/span&gt;&lt;b style=&quot;font-family: &amp;#34;helvetica&amp;#34; ; font-size: 20px&quot;&gt;&amp;nbsp; &amp;nbsp;&lt;/b&gt;&lt;span style=&quot;font-family: &amp;#34;helvetica&amp;#34; ; font-size: 20px&quot;&gt;4&amp;nbsp; &amp;nbsp;7&lt;/span&gt;&lt;span style=&quot;font-family: &amp;#34;helvetica&amp;#34; ; font-size: 20px&quot;&gt;&amp;nbsp; &amp;nbsp;8&lt;/span&gt;&lt;span style=&quot;font-family: &amp;#34;helvetica&amp;#34; ; font-size: 20px&quot;&gt;&amp;nbsp;&lt;/span&gt;" style="rounded=0;whiteSpace=wrap;html=1;" parent="1" vertex="1">
          <mxGeometry x="240" y="2120" width="280" height="70" as="geometry" />
        </mxCell>
        <mxCell id="W44GUW1nfyjWdWvCGlpn-29" value="&lt;span style=&quot;font-family: &amp;#34;helvetica&amp;#34; ; font-size: 20px&quot;&gt;1&lt;b&gt;&amp;nbsp; &amp;nbsp; &lt;/b&gt;3&amp;nbsp; &amp;nbsp;5&amp;nbsp; &amp;nbsp;&amp;nbsp;&lt;b&gt;6&lt;/b&gt;&amp;nbsp; &amp;nbsp; &lt;b&gt;2&lt;/b&gt;&lt;/span&gt;&lt;b style=&quot;font-family: &amp;#34;helvetica&amp;#34; ; font-size: 20px&quot;&gt;&amp;nbsp; &amp;nbsp;&lt;/b&gt;&lt;span style=&quot;font-family: &amp;#34;helvetica&amp;#34; ; font-size: 20px&quot;&gt;4&amp;nbsp; &amp;nbsp;7&lt;/span&gt;&lt;span style=&quot;font-family: &amp;#34;helvetica&amp;#34; ; font-size: 20px&quot;&gt;&amp;nbsp; &amp;nbsp;8&lt;/span&gt;&lt;span style=&quot;font-family: &amp;#34;helvetica&amp;#34; ; font-size: 20px&quot;&gt;&amp;nbsp;&lt;/span&gt;" style="rounded=0;whiteSpace=wrap;html=1;" parent="1" vertex="1">
          <mxGeometry x="240" y="2230" width="280" height="70" as="geometry" />
        </mxCell>
        <mxCell id="W44GUW1nfyjWdWvCGlpn-30" value="&lt;span style=&quot;font-family: &amp;#34;helvetica&amp;#34; ; font-size: 20px&quot;&gt;1&lt;b&gt;&amp;nbsp; &amp;nbsp; &lt;/b&gt;3&amp;nbsp; &amp;nbsp;5&amp;nbsp; &amp;nbsp; 2&amp;nbsp;&amp;nbsp; &amp;nbsp;&lt;b&gt;6&lt;/b&gt;&lt;/span&gt;&lt;b style=&quot;font-family: &amp;#34;helvetica&amp;#34; ; font-size: 20px&quot;&gt;&amp;nbsp; &amp;nbsp;&lt;/b&gt;&lt;span style=&quot;font-family: &amp;#34;helvetica&amp;#34; ; font-size: 20px&quot;&gt;&lt;b&gt;4&amp;nbsp;&lt;/b&gt; &amp;nbsp;7&lt;/span&gt;&lt;span style=&quot;font-family: &amp;#34;helvetica&amp;#34; ; font-size: 20px&quot;&gt;&amp;nbsp; &amp;nbsp;8&lt;/span&gt;&lt;span style=&quot;font-family: &amp;#34;helvetica&amp;#34; ; font-size: 20px&quot;&gt;&amp;nbsp;&lt;/span&gt;" style="rounded=0;whiteSpace=wrap;html=1;" parent="1" vertex="1">
          <mxGeometry x="240" y="2350" width="280" height="70" as="geometry" />
        </mxCell>
        <mxCell id="W44GUW1nfyjWdWvCGlpn-31" value="&lt;span style=&quot;font-family: &amp;#34;helvetica&amp;#34; ; font-size: 20px&quot;&gt;1&lt;b&gt;&amp;nbsp; &amp;nbsp; &lt;/b&gt;3&amp;nbsp; &amp;nbsp;5&amp;nbsp; &amp;nbsp; 2&amp;nbsp; &amp;nbsp; 4&lt;/span&gt;&lt;b style=&quot;font-family: &amp;#34;helvetica&amp;#34; ; font-size: 20px&quot;&gt;&amp;nbsp; &amp;nbsp;6&lt;/b&gt;&lt;span style=&quot;font-family: &amp;#34;helvetica&amp;#34; ; font-size: 20px&quot;&gt;&lt;b&gt;&amp;nbsp;&lt;/b&gt; &amp;nbsp;&lt;b&gt;7&lt;/b&gt;&lt;/span&gt;&lt;span style=&quot;font-family: &amp;#34;helvetica&amp;#34; ; font-size: 20px&quot;&gt;&amp;nbsp; &amp;nbsp;8&lt;/span&gt;&lt;span style=&quot;font-family: &amp;#34;helvetica&amp;#34; ; font-size: 20px&quot;&gt;&amp;nbsp;&lt;/span&gt;" style="rounded=0;whiteSpace=wrap;html=1;" parent="1" vertex="1">
          <mxGeometry x="240" y="2460" width="280" height="70" as="geometry" />
        </mxCell>
        <mxCell id="W44GUW1nfyjWdWvCGlpn-32" value="&lt;span style=&quot;font-family: &amp;#34;helvetica&amp;#34; ; font-size: 20px&quot;&gt;1&lt;b&gt;&amp;nbsp; &amp;nbsp; &lt;/b&gt;3&amp;nbsp; &amp;nbsp;5&amp;nbsp; &amp;nbsp; 2&amp;nbsp; &amp;nbsp; 4&lt;/span&gt;&lt;b style=&quot;font-family: &amp;#34;helvetica&amp;#34; ; font-size: 20px&quot;&gt;&amp;nbsp; &amp;nbsp;&lt;/b&gt;&lt;span style=&quot;font-family: &amp;#34;helvetica&amp;#34; ; font-size: 20px&quot;&gt;6&lt;/span&gt;&lt;span style=&quot;font-family: &amp;#34;helvetica&amp;#34; ; font-size: 20px&quot;&gt;&amp;nbsp; &amp;nbsp;&lt;b&gt;7&lt;/b&gt;&lt;/span&gt;&lt;span style=&quot;font-family: &amp;#34;helvetica&amp;#34; ; font-size: 20px&quot;&gt;&amp;nbsp; &amp;nbsp;&lt;b&gt;8&lt;/b&gt;&lt;/span&gt;&lt;span style=&quot;font-family: &amp;#34;helvetica&amp;#34; ; font-size: 20px&quot;&gt;&lt;b&gt;&amp;nbsp;&lt;/b&gt;&lt;/span&gt;" style="rounded=0;whiteSpace=wrap;html=1;" parent="1" vertex="1">
          <mxGeometry x="240" y="2580" width="280" height="70" as="geometry" />
        </mxCell>
        <mxCell id="W44GUW1nfyjWdWvCGlpn-33" value="&lt;span style=&quot;font-family: &amp;#34;helvetica&amp;#34; ; font-size: 20px&quot;&gt;&lt;b&gt;1&amp;nbsp; &amp;nbsp; 3&lt;/b&gt;&amp;nbsp; &amp;nbsp;5&amp;nbsp; &amp;nbsp; 2&amp;nbsp; &amp;nbsp; 4&lt;/span&gt;&lt;b style=&quot;font-family: &amp;#34;helvetica&amp;#34; ; font-size: 20px&quot;&gt;&amp;nbsp; &amp;nbsp;&lt;/b&gt;&lt;span style=&quot;font-family: &amp;#34;helvetica&amp;#34; ; font-size: 20px&quot;&gt;6&lt;/span&gt;&lt;span style=&quot;font-family: &amp;#34;helvetica&amp;#34; ; font-size: 20px&quot;&gt;&amp;nbsp; &amp;nbsp;7&lt;/span&gt;&lt;span style=&quot;font-family: &amp;#34;helvetica&amp;#34; ; font-size: 20px&quot;&gt;&amp;nbsp; &amp;nbsp;8&lt;/span&gt;&lt;span style=&quot;font-family: &amp;#34;helvetica&amp;#34; ; font-size: 20px&quot;&gt;&lt;b&gt;&amp;nbsp;&lt;/b&gt;&lt;/span&gt;" style="rounded=0;whiteSpace=wrap;html=1;" parent="1" vertex="1">
          <mxGeometry x="240" y="2710" width="280" height="70" as="geometry" />
        </mxCell>
        <mxCell id="W44GUW1nfyjWdWvCGlpn-34" value="&lt;span style=&quot;font-family: &amp;#34;helvetica&amp;#34; ; font-size: 20px&quot;&gt;1&lt;b&gt;&amp;nbsp; &amp;nbsp; 3&amp;nbsp; &amp;nbsp;5&lt;/b&gt;&amp;nbsp; &amp;nbsp; 2&amp;nbsp; &amp;nbsp; 4&lt;/span&gt;&lt;b style=&quot;font-family: &amp;#34;helvetica&amp;#34; ; font-size: 20px&quot;&gt;&amp;nbsp; &amp;nbsp;&lt;/b&gt;&lt;span style=&quot;font-family: &amp;#34;helvetica&amp;#34; ; font-size: 20px&quot;&gt;6&lt;/span&gt;&lt;span style=&quot;font-family: &amp;#34;helvetica&amp;#34; ; font-size: 20px&quot;&gt;&amp;nbsp; &amp;nbsp;7&lt;/span&gt;&lt;span style=&quot;font-family: &amp;#34;helvetica&amp;#34; ; font-size: 20px&quot;&gt;&amp;nbsp; &amp;nbsp;8&lt;/span&gt;&lt;span style=&quot;font-family: &amp;#34;helvetica&amp;#34; ; font-size: 20px&quot;&gt;&lt;b&gt;&amp;nbsp;&lt;/b&gt;&lt;/span&gt;" style="rounded=0;whiteSpace=wrap;html=1;" parent="1" vertex="1">
          <mxGeometry x="240" y="2820" width="280" height="70" as="geometry" />
        </mxCell>
        <mxCell id="W44GUW1nfyjWdWvCGlpn-35" value="&lt;span style=&quot;font-family: &amp;#34;helvetica&amp;#34; ; font-size: 20px&quot;&gt;1&lt;b&gt;&amp;nbsp; &amp;nbsp; &lt;/b&gt;3&lt;b&gt;&amp;nbsp; &amp;nbsp;5&lt;/b&gt;&amp;nbsp; &amp;nbsp; &lt;b&gt;2&lt;/b&gt;&amp;nbsp; &amp;nbsp; 4&lt;/span&gt;&lt;b style=&quot;font-family: &amp;#34;helvetica&amp;#34; ; font-size: 20px&quot;&gt;&amp;nbsp; &amp;nbsp;&lt;/b&gt;&lt;span style=&quot;font-family: &amp;#34;helvetica&amp;#34; ; font-size: 20px&quot;&gt;6&lt;/span&gt;&lt;span style=&quot;font-family: &amp;#34;helvetica&amp;#34; ; font-size: 20px&quot;&gt;&amp;nbsp; &amp;nbsp;7&lt;/span&gt;&lt;span style=&quot;font-family: &amp;#34;helvetica&amp;#34; ; font-size: 20px&quot;&gt;&amp;nbsp; &amp;nbsp;8&lt;/span&gt;&lt;span style=&quot;font-family: &amp;#34;helvetica&amp;#34; ; font-size: 20px&quot;&gt;&lt;b&gt;&amp;nbsp;&lt;/b&gt;&lt;/span&gt;" style="rounded=0;whiteSpace=wrap;html=1;" parent="1" vertex="1">
          <mxGeometry x="240" y="2930" width="280" height="70" as="geometry" />
        </mxCell>
        <mxCell id="W44GUW1nfyjWdWvCGlpn-36" value="&lt;span style=&quot;font-family: &amp;#34;helvetica&amp;#34; ; font-size: 20px&quot;&gt;1&lt;b&gt;&amp;nbsp; &amp;nbsp; &lt;/b&gt;3&lt;b&gt;&amp;nbsp; &amp;nbsp;&lt;/b&gt;2&amp;nbsp; &amp;nbsp;&amp;nbsp;&lt;b&gt;5&lt;/b&gt;&amp;nbsp; &amp;nbsp;&lt;b&gt; 4&lt;/b&gt;&lt;/span&gt;&lt;b style=&quot;font-family: &amp;#34;helvetica&amp;#34; ; font-size: 20px&quot;&gt;&amp;nbsp; &amp;nbsp;&lt;/b&gt;&lt;span style=&quot;font-family: &amp;#34;helvetica&amp;#34; ; font-size: 20px&quot;&gt;6&lt;/span&gt;&lt;span style=&quot;font-family: &amp;#34;helvetica&amp;#34; ; font-size: 20px&quot;&gt;&amp;nbsp; &amp;nbsp;7&lt;/span&gt;&lt;span style=&quot;font-family: &amp;#34;helvetica&amp;#34; ; font-size: 20px&quot;&gt;&amp;nbsp; &amp;nbsp;8&lt;/span&gt;&lt;span style=&quot;font-family: &amp;#34;helvetica&amp;#34; ; font-size: 20px&quot;&gt;&lt;b&gt;&amp;nbsp;&lt;/b&gt;&lt;/span&gt;" style="rounded=0;whiteSpace=wrap;html=1;" parent="1" vertex="1">
          <mxGeometry x="240" y="3030" width="280" height="70" as="geometry" />
        </mxCell>
        <mxCell id="W44GUW1nfyjWdWvCGlpn-37" value="&lt;span style=&quot;font-family: &amp;#34;helvetica&amp;#34; ; font-size: 20px&quot;&gt;1&lt;b&gt;&amp;nbsp; &amp;nbsp; &lt;/b&gt;3&lt;b&gt;&amp;nbsp; &amp;nbsp;&lt;/b&gt;2&amp;nbsp; &amp;nbsp;4&amp;nbsp; &amp;nbsp;&lt;b&gt; 5&lt;/b&gt;&lt;/span&gt;&lt;b style=&quot;font-family: &amp;#34;helvetica&amp;#34; ; font-size: 20px&quot;&gt;&amp;nbsp; &amp;nbsp;&lt;/b&gt;&lt;span style=&quot;font-family: &amp;#34;helvetica&amp;#34; ; font-size: 20px&quot;&gt;&lt;b&gt;6&lt;/b&gt;&lt;/span&gt;&lt;span style=&quot;font-family: &amp;#34;helvetica&amp;#34; ; font-size: 20px&quot;&gt;&amp;nbsp; &amp;nbsp;7&lt;/span&gt;&lt;span style=&quot;font-family: &amp;#34;helvetica&amp;#34; ; font-size: 20px&quot;&gt;&amp;nbsp; &amp;nbsp;8&lt;/span&gt;&lt;span style=&quot;font-family: &amp;#34;helvetica&amp;#34; ; font-size: 20px&quot;&gt;&lt;b&gt;&amp;nbsp;&lt;/b&gt;&lt;/span&gt;" style="rounded=0;whiteSpace=wrap;html=1;" parent="1" vertex="1">
          <mxGeometry x="240" y="3130" width="280" height="70" as="geometry" />
        </mxCell>
        <mxCell id="W44GUW1nfyjWdWvCGlpn-38" value="&lt;span style=&quot;font-family: &amp;#34;helvetica&amp;#34; ; font-size: 20px&quot;&gt;1&lt;b&gt;&amp;nbsp; &amp;nbsp; &lt;/b&gt;3&lt;b&gt;&amp;nbsp; &amp;nbsp;&lt;/b&gt;2&amp;nbsp; &amp;nbsp;4&amp;nbsp; &amp;nbsp;&lt;b&gt;&amp;nbsp;&lt;/b&gt;5&lt;/span&gt;&lt;b style=&quot;font-family: &amp;#34;helvetica&amp;#34; ; font-size: 20px&quot;&gt;&amp;nbsp; &amp;nbsp;&lt;/b&gt;&lt;span style=&quot;font-family: &amp;#34;helvetica&amp;#34; ; font-size: 20px&quot;&gt;&lt;b&gt;6&lt;/b&gt;&lt;/span&gt;&lt;span style=&quot;font-family: &amp;#34;helvetica&amp;#34; ; font-size: 20px&quot;&gt;&amp;nbsp; &amp;nbsp;&lt;b&gt;7&lt;/b&gt;&lt;/span&gt;&lt;span style=&quot;font-family: &amp;#34;helvetica&amp;#34; ; font-size: 20px&quot;&gt;&amp;nbsp; &amp;nbsp;8&lt;/span&gt;&lt;span style=&quot;font-family: &amp;#34;helvetica&amp;#34; ; font-size: 20px&quot;&gt;&lt;b&gt;&amp;nbsp;&lt;/b&gt;&lt;/span&gt;" style="rounded=0;whiteSpace=wrap;html=1;" parent="1" vertex="1">
          <mxGeometry x="240" y="3240" width="280" height="70" as="geometry" />
        </mxCell>
        <mxCell id="W44GUW1nfyjWdWvCGlpn-39" value="&lt;span style=&quot;font-family: &amp;#34;helvetica&amp;#34; ; font-size: 20px&quot;&gt;1&lt;b&gt;&amp;nbsp; &amp;nbsp; &lt;/b&gt;3&lt;b&gt;&amp;nbsp; &amp;nbsp;&lt;/b&gt;2&amp;nbsp; &amp;nbsp;4&amp;nbsp; &amp;nbsp;&lt;b&gt;&amp;nbsp;&lt;/b&gt;5&lt;/span&gt;&lt;b style=&quot;font-family: &amp;#34;helvetica&amp;#34; ; font-size: 20px&quot;&gt;&amp;nbsp; &amp;nbsp;&lt;/b&gt;&lt;span style=&quot;font-family: &amp;#34;helvetica&amp;#34; ; font-size: 20px&quot;&gt;6&lt;/span&gt;&lt;span style=&quot;font-family: &amp;#34;helvetica&amp;#34; ; font-size: 20px&quot;&gt;&amp;nbsp; &amp;nbsp;&lt;b&gt;7&lt;/b&gt;&lt;/span&gt;&lt;span style=&quot;font-family: &amp;#34;helvetica&amp;#34; ; font-size: 20px&quot;&gt;&amp;nbsp; &amp;nbsp;&lt;b&gt;8&lt;/b&gt;&lt;/span&gt;&lt;span style=&quot;font-family: &amp;#34;helvetica&amp;#34; ; font-size: 20px&quot;&gt;&lt;b&gt;&amp;nbsp;&lt;/b&gt;&lt;/span&gt;" style="rounded=0;whiteSpace=wrap;html=1;" parent="1" vertex="1">
          <mxGeometry x="240" y="3350" width="280" height="70" as="geometry" />
        </mxCell>
        <mxCell id="W44GUW1nfyjWdWvCGlpn-40" value="&lt;span style=&quot;font-family: &amp;#34;helvetica&amp;#34; ; font-size: 20px&quot;&gt;&lt;b&gt;1&amp;nbsp; &amp;nbsp;&amp;nbsp;3&amp;nbsp; &amp;nbsp;&lt;/b&gt;2&amp;nbsp; &amp;nbsp;4&amp;nbsp; &amp;nbsp;&lt;b&gt;&amp;nbsp;&lt;/b&gt;5&lt;/span&gt;&lt;b style=&quot;font-family: &amp;#34;helvetica&amp;#34; ; font-size: 20px&quot;&gt;&amp;nbsp; &amp;nbsp;&lt;/b&gt;&lt;span style=&quot;font-family: &amp;#34;helvetica&amp;#34; ; font-size: 20px&quot;&gt;6&lt;/span&gt;&lt;span style=&quot;font-family: &amp;#34;helvetica&amp;#34; ; font-size: 20px&quot;&gt;&amp;nbsp; &amp;nbsp;7&amp;nbsp; &amp;nbsp;8&lt;/span&gt;&lt;span style=&quot;font-family: &amp;#34;helvetica&amp;#34; ; font-size: 20px&quot;&gt;&amp;nbsp; &amp;nbsp;&lt;/span&gt;" style="rounded=0;whiteSpace=wrap;html=1;" parent="1" vertex="1">
          <mxGeometry x="240" y="3470" width="280" height="70" as="geometry" />
        </mxCell>
        <mxCell id="W44GUW1nfyjWdWvCGlpn-41" value="&lt;span style=&quot;font-family: &amp;#34;helvetica&amp;#34; ; font-size: 20px&quot;&gt;1&lt;b&gt;&amp;nbsp; &amp;nbsp; 3&amp;nbsp; &amp;nbsp;2&lt;/b&gt;&amp;nbsp; &amp;nbsp;4&amp;nbsp; &amp;nbsp;&lt;b&gt;&amp;nbsp;&lt;/b&gt;5&lt;/span&gt;&lt;b style=&quot;font-family: &amp;#34;helvetica&amp;#34; ; font-size: 20px&quot;&gt;&amp;nbsp; &amp;nbsp;&lt;/b&gt;&lt;span style=&quot;font-family: &amp;#34;helvetica&amp;#34; ; font-size: 20px&quot;&gt;6&lt;/span&gt;&lt;span style=&quot;font-family: &amp;#34;helvetica&amp;#34; ; font-size: 20px&quot;&gt;&amp;nbsp; &amp;nbsp;7&amp;nbsp; &amp;nbsp;8&lt;/span&gt;&lt;span style=&quot;font-family: &amp;#34;helvetica&amp;#34; ; font-size: 20px&quot;&gt;&amp;nbsp; &amp;nbsp;&lt;/span&gt;" style="rounded=0;whiteSpace=wrap;html=1;" parent="1" vertex="1">
          <mxGeometry x="240" y="3590" width="280" height="70" as="geometry" />
        </mxCell>
        <mxCell id="W44GUW1nfyjWdWvCGlpn-42" value="&lt;span style=&quot;font-family: &amp;#34;helvetica&amp;#34; ; font-size: 20px&quot;&gt;1&lt;b&gt;&amp;nbsp; &amp;nbsp; &lt;/b&gt;2&lt;b&gt;&amp;nbsp; &amp;nbsp;3&lt;/b&gt;&amp;nbsp; &amp;nbsp;&lt;b&gt;4&lt;/b&gt;&amp;nbsp; &amp;nbsp;&lt;b&gt;&amp;nbsp;&lt;/b&gt;5&lt;/span&gt;&lt;b style=&quot;font-family: &amp;#34;helvetica&amp;#34; ; font-size: 20px&quot;&gt;&amp;nbsp; &amp;nbsp;&lt;/b&gt;&lt;span style=&quot;font-family: &amp;#34;helvetica&amp;#34; ; font-size: 20px&quot;&gt;6&lt;/span&gt;&lt;span style=&quot;font-family: &amp;#34;helvetica&amp;#34; ; font-size: 20px&quot;&gt;&amp;nbsp; &amp;nbsp;7&amp;nbsp; &amp;nbsp;8&lt;/span&gt;&lt;span style=&quot;font-family: &amp;#34;helvetica&amp;#34; ; font-size: 20px&quot;&gt;&amp;nbsp; &amp;nbsp;&lt;/span&gt;" style="rounded=0;whiteSpace=wrap;html=1;fillColor=#f5f5f5;strokeColor=#666666;fontColor=#333333;" parent="1" vertex="1">
          <mxGeometry x="238" y="3700" width="280" height="70" as="geometry" />
        </mxCell>
        <mxCell id="W44GUW1nfyjWdWvCGlpn-43" value="&lt;span style=&quot;font-family: &amp;#34;helvetica&amp;#34; ; font-size: 20px&quot;&gt;1&lt;b&gt;&amp;nbsp; &amp;nbsp; &lt;/b&gt;2&lt;b&gt;&amp;nbsp; &amp;nbsp;&lt;/b&gt;3&amp;nbsp; &amp;nbsp;&lt;b&gt;4&lt;/b&gt;&amp;nbsp; &amp;nbsp;&lt;b&gt;&amp;nbsp;5&lt;/b&gt;&lt;/span&gt;&lt;b style=&quot;font-family: &amp;#34;helvetica&amp;#34; ; font-size: 20px&quot;&gt;&amp;nbsp; &amp;nbsp;&lt;/b&gt;&lt;span style=&quot;font-family: &amp;#34;helvetica&amp;#34; ; font-size: 20px&quot;&gt;6&lt;/span&gt;&lt;span style=&quot;font-family: &amp;#34;helvetica&amp;#34; ; font-size: 20px&quot;&gt;&amp;nbsp; &amp;nbsp;7&amp;nbsp; &amp;nbsp;8&lt;/span&gt;&lt;span style=&quot;font-family: &amp;#34;helvetica&amp;#34; ; font-size: 20px&quot;&gt;&amp;nbsp; &amp;nbsp;&lt;/span&gt;" style="rounded=0;whiteSpace=wrap;html=1;fillColor=#f5f5f5;strokeColor=#666666;fontColor=#333333;" parent="1" vertex="1">
          <mxGeometry x="240" y="3820" width="280" height="70" as="geometry" />
        </mxCell>
        <mxCell id="W44GUW1nfyjWdWvCGlpn-44" value="&lt;span style=&quot;font-family: &amp;#34;helvetica&amp;#34; ; font-size: 20px&quot;&gt;1&lt;b&gt;&amp;nbsp; &amp;nbsp; &lt;/b&gt;2&lt;b&gt;&amp;nbsp; &amp;nbsp;&lt;/b&gt;3&amp;nbsp; &amp;nbsp;4&amp;nbsp; &amp;nbsp;&lt;b&gt;&amp;nbsp;5&lt;/b&gt;&lt;/span&gt;&lt;b style=&quot;font-family: &amp;#34;helvetica&amp;#34; ; font-size: 20px&quot;&gt;&amp;nbsp; &amp;nbsp;6&lt;/b&gt;&lt;span style=&quot;font-family: &amp;#34;helvetica&amp;#34; ; font-size: 20px&quot;&gt;&amp;nbsp; &amp;nbsp;7&amp;nbsp; &amp;nbsp;8&lt;/span&gt;&lt;span style=&quot;font-family: &amp;#34;helvetica&amp;#34; ; font-size: 20px&quot;&gt;&amp;nbsp; &amp;nbsp;&lt;/span&gt;" style="rounded=0;whiteSpace=wrap;html=1;fillColor=#f5f5f5;strokeColor=#666666;fontColor=#333333;" parent="1" vertex="1">
          <mxGeometry x="241" y="3930" width="280" height="70" as="geometry" />
        </mxCell>
        <mxCell id="W44GUW1nfyjWdWvCGlpn-45" value="&lt;span style=&quot;font-family: &amp;#34;helvetica&amp;#34; ; font-size: 20px&quot;&gt;1&lt;b&gt;&amp;nbsp; &amp;nbsp; &lt;/b&gt;2&lt;b&gt;&amp;nbsp; &amp;nbsp;&lt;/b&gt;3&amp;nbsp; &amp;nbsp;4&amp;nbsp; &amp;nbsp;&lt;b&gt;&amp;nbsp;&lt;/b&gt;5&lt;/span&gt;&lt;b style=&quot;font-family: &amp;#34;helvetica&amp;#34; ; font-size: 20px&quot;&gt;&amp;nbsp; &amp;nbsp;6&lt;/b&gt;&lt;span style=&quot;font-family: &amp;#34;helvetica&amp;#34; ; font-size: 20px&quot;&gt;&amp;nbsp; &amp;nbsp;&lt;b&gt;7&lt;/b&gt;&amp;nbsp; &amp;nbsp;8&lt;/span&gt;&lt;span style=&quot;font-family: &amp;#34;helvetica&amp;#34; ; font-size: 20px&quot;&gt;&amp;nbsp; &amp;nbsp;&lt;/span&gt;" style="rounded=0;whiteSpace=wrap;html=1;fillColor=#f5f5f5;strokeColor=#666666;fontColor=#333333;" parent="1" vertex="1">
          <mxGeometry x="241" y="4040" width="280" height="70" as="geometry" />
        </mxCell>
        <mxCell id="W44GUW1nfyjWdWvCGlpn-46" value="&lt;span style=&quot;font-family: &amp;#34;helvetica&amp;#34; ; font-size: 20px&quot;&gt;1&lt;b&gt;&amp;nbsp; &amp;nbsp; &lt;/b&gt;2&lt;b&gt;&amp;nbsp; &amp;nbsp;&lt;/b&gt;3&amp;nbsp; &amp;nbsp;4&amp;nbsp; &amp;nbsp;&lt;b&gt;&amp;nbsp;&lt;/b&gt;5&lt;/span&gt;&lt;b style=&quot;font-family: &amp;#34;helvetica&amp;#34; ; font-size: 20px&quot;&gt;&amp;nbsp; &amp;nbsp;&lt;/b&gt;&lt;span style=&quot;font-family: &amp;#34;helvetica&amp;#34; ; font-size: 20px&quot;&gt;6&lt;/span&gt;&lt;span style=&quot;font-family: &amp;#34;helvetica&amp;#34; ; font-size: 20px&quot;&gt;&amp;nbsp; &amp;nbsp;&lt;b&gt;7&lt;/b&gt;&amp;nbsp; &lt;b&gt;&amp;nbsp;8&lt;/b&gt;&lt;/span&gt;&lt;span style=&quot;font-family: &amp;#34;helvetica&amp;#34; ; font-size: 20px&quot;&gt;&amp;nbsp; &amp;nbsp;&lt;/span&gt;" style="rounded=0;whiteSpace=wrap;html=1;fillColor=#f5f5f5;strokeColor=#666666;fontColor=#333333;" parent="1" vertex="1">
          <mxGeometry x="241" y="4150" width="280" height="70" as="geometry" />
        </mxCell>
        <mxCell id="W44GUW1nfyjWdWvCGlpn-47" value="&lt;span style=&quot;font-family: &amp;#34;helvetica&amp;#34; ; font-size: 20px&quot;&gt;1&lt;b&gt;&amp;nbsp; &amp;nbsp; &lt;/b&gt;2&lt;b&gt;&amp;nbsp; &amp;nbsp;&lt;/b&gt;3&amp;nbsp; &amp;nbsp;4&amp;nbsp; &amp;nbsp;&lt;b&gt;&amp;nbsp;&lt;/b&gt;5&lt;/span&gt;&lt;b style=&quot;font-family: &amp;#34;helvetica&amp;#34; ; font-size: 20px&quot;&gt;&amp;nbsp; &amp;nbsp;&lt;/b&gt;&lt;span style=&quot;font-family: &amp;#34;helvetica&amp;#34; ; font-size: 20px&quot;&gt;6&lt;/span&gt;&lt;span style=&quot;font-family: &amp;#34;helvetica&amp;#34; ; font-size: 20px&quot;&gt;&amp;nbsp; &amp;nbsp;7&amp;nbsp; &amp;nbsp;8&lt;/span&gt;&lt;span style=&quot;font-family: &amp;#34;helvetica&amp;#34; ; font-size: 20px&quot;&gt;&amp;nbsp; &amp;nbsp;&lt;/span&gt;" style="rounded=0;whiteSpace=wrap;html=1;fillColor=#d5e8d4;strokeColor=#82b366;" parent="1" vertex="1">
          <mxGeometry x="241" y="4260" width="280" height="70" as="geometry" />
        </mxCell>
        <mxCell id="G7K4v7-U7VRo1Dru199X-4" value="" style="edgeStyle=orthogonalEdgeStyle;rounded=0;orthogonalLoop=1;jettySize=auto;html=1;" edge="1" parent="1" source="G7K4v7-U7VRo1Dru199X-2" target="G7K4v7-U7VRo1Dru199X-3">
          <mxGeometry relative="1" as="geometry" />
        </mxCell>
        <mxCell id="G7K4v7-U7VRo1Dru199X-2" value="BubbelSort" style="ellipse;whiteSpace=wrap;html=1;fillColor=#d5e8d4;strokeColor=#82b366;" vertex="1" parent="1">
          <mxGeometry x="1015" y="40" width="120" height="80" as="geometry" />
        </mxCell>
        <mxCell id="G7K4v7-U7VRo1Dru199X-7" value="" style="edgeStyle=orthogonalEdgeStyle;rounded=0;orthogonalLoop=1;jettySize=auto;html=1;" edge="1" parent="1" source="G7K4v7-U7VRo1Dru199X-3" target="G7K4v7-U7VRo1Dru199X-6">
          <mxGeometry relative="1" as="geometry" />
        </mxCell>
        <mxCell id="G7K4v7-U7VRo1Dru199X-3" value="Consider the 2 numbers in bold" style="rounded=0;whiteSpace=wrap;html=1;" vertex="1" parent="1">
          <mxGeometry x="965" y="150" width="220" height="65" as="geometry" />
        </mxCell>
        <mxCell id="G7K4v7-U7VRo1Dru199X-9" value="" style="edgeStyle=orthogonalEdgeStyle;rounded=0;orthogonalLoop=1;jettySize=auto;html=1;" edge="1" parent="1" source="G7K4v7-U7VRo1Dru199X-6" target="G7K4v7-U7VRo1Dru199X-8">
          <mxGeometry relative="1" as="geometry" />
        </mxCell>
        <mxCell id="G7K4v7-U7VRo1Dru199X-12" style="edgeStyle=orthogonalEdgeStyle;rounded=0;orthogonalLoop=1;jettySize=auto;html=1;entryX=0.75;entryY=0;entryDx=0;entryDy=0;" edge="1" parent="1" source="G7K4v7-U7VRo1Dru199X-6" target="G7K4v7-U7VRo1Dru199X-11">
          <mxGeometry relative="1" as="geometry" />
        </mxCell>
        <mxCell id="G7K4v7-U7VRo1Dru199X-6" value="Is number one smaller than number two?" style="rhombus;whiteSpace=wrap;html=1;" vertex="1" parent="1">
          <mxGeometry x="925" y="245" width="300" height="85" as="geometry" />
        </mxCell>
        <mxCell id="G7K4v7-U7VRo1Dru199X-23" style="edgeStyle=orthogonalEdgeStyle;rounded=0;orthogonalLoop=1;jettySize=auto;html=1;entryX=0;entryY=0.5;entryDx=0;entryDy=0;" edge="1" parent="1" source="G7K4v7-U7VRo1Dru199X-8" target="G7K4v7-U7VRo1Dru199X-15">
          <mxGeometry relative="1" as="geometry" />
        </mxCell>
        <mxCell id="G7K4v7-U7VRo1Dru199X-8" value="Leave order of number as they are" style="whiteSpace=wrap;html=1;" vertex="1" parent="1">
          <mxGeometry x="750" y="340" width="120" height="60" as="geometry" />
        </mxCell>
        <mxCell id="G7K4v7-U7VRo1Dru199X-10" value="Yes" style="text;html=1;align=center;verticalAlign=middle;resizable=0;points=[];autosize=1;" vertex="1" parent="1">
          <mxGeometry x="860" y="260" width="40" height="20" as="geometry" />
        </mxCell>
        <mxCell id="G7K4v7-U7VRo1Dru199X-21" style="edgeStyle=orthogonalEdgeStyle;rounded=0;orthogonalLoop=1;jettySize=auto;html=1;entryX=1;entryY=0.5;entryDx=0;entryDy=0;" edge="1" parent="1" source="G7K4v7-U7VRo1Dru199X-11" target="G7K4v7-U7VRo1Dru199X-15">
          <mxGeometry relative="1" as="geometry" />
        </mxCell>
        <mxCell id="G7K4v7-U7VRo1Dru199X-11" value="Switch order of the numbers, so that the first number of the pair is smaller than the one following" style="rounded=0;whiteSpace=wrap;html=1;" vertex="1" parent="1">
          <mxGeometry x="1270" y="310" width="170" height="80" as="geometry" />
        </mxCell>
        <mxCell id="G7K4v7-U7VRo1Dru199X-14" value="No" style="text;html=1;align=center;verticalAlign=middle;resizable=0;points=[];autosize=1;" vertex="1" parent="1">
          <mxGeometry x="1241" y="260" width="30" height="20" as="geometry" />
        </mxCell>
        <mxCell id="G7K4v7-U7VRo1Dru199X-25" value="" style="edgeStyle=orthogonalEdgeStyle;rounded=0;orthogonalLoop=1;jettySize=auto;html=1;" edge="1" parent="1" source="G7K4v7-U7VRo1Dru199X-15" target="G7K4v7-U7VRo1Dru199X-24">
          <mxGeometry relative="1" as="geometry" />
        </mxCell>
        <mxCell id="G7K4v7-U7VRo1Dru199X-15" value="Number one is &amp;lt; than number two&lt;br&gt;" style="rounded=0;whiteSpace=wrap;html=1;" vertex="1" parent="1">
          <mxGeometry x="980" y="370" width="200" height="80" as="geometry" />
        </mxCell>
        <mxCell id="G7K4v7-U7VRo1Dru199X-29" style="edgeStyle=orthogonalEdgeStyle;rounded=0;orthogonalLoop=1;jettySize=auto;html=1;entryX=0.5;entryY=1;entryDx=0;entryDy=0;" edge="1" parent="1" source="G7K4v7-U7VRo1Dru199X-24" target="G7K4v7-U7VRo1Dru199X-27">
          <mxGeometry relative="1" as="geometry" />
        </mxCell>
        <mxCell id="G7K4v7-U7VRo1Dru199X-24" value="The sort process of these number are done&amp;nbsp;" style="rounded=0;whiteSpace=wrap;html=1;" vertex="1" parent="1">
          <mxGeometry x="975" y="570" width="210" height="50" as="geometry" />
        </mxCell>
        <mxCell id="G7K4v7-U7VRo1Dru199X-34" value="" style="edgeStyle=orthogonalEdgeStyle;rounded=0;orthogonalLoop=1;jettySize=auto;html=1;" edge="1" parent="1" source="G7K4v7-U7VRo1Dru199X-27" target="W44GUW1nfyjWdWvCGlpn-3">
          <mxGeometry relative="1" as="geometry" />
        </mxCell>
        <mxCell id="G7K4v7-U7VRo1Dru199X-27" value="Move to the next line&amp;nbsp;" style="rounded=0;whiteSpace=wrap;html=1;" vertex="1" parent="1">
          <mxGeometry x="590" y="140" width="150" height="60" as="geometry" />
        </mxCell>
      </root>
    </mxGraphModel>
  </diagram>
</mxfile>
